<svg id="Layer_1" data-name="Layer 1" xmlns="http://www.w3.org/2000/svg" viewBox="0 0 108 108"><defs><style>.cls-1{fill:#fff;}</style></defs><title>IconSocial</title><path class="cls-1" d="M54,108a54,54,0,1,1,54-54A54.06,54.06,0,0,1,54,108ZM54,4a50,50,0,1,0,50,50A50.06,50.06,0,0,0,54,4Z"/><path class="cls-1" d="M82.9,36.08A23.94,23.94,0,0,1,76.09,38a12,12,0,0,0,5.22-6.56,24.06,24.06,0,0,1-7.54,2.88,11.86,11.86,0,0,0-20.51,8.11,12,12,0,0,0,.3,2.7A33.63,33.63,0,0,1,29.13,32.69a11.71,11.71,0,0,0-1.61,6,11.87,11.87,0,0,0,5.28,9.87A11.92,11.92,0,0,1,27.42,47v.15a11.88,11.88,0,0,0,9.51,11.63,12.3,12.3,0,0,1-3.12.41A10.88,10.88,0,0,1,31.58,59a11.88,11.88,0,0,0,11.07,8.24A23.76,23.76,0,0,1,27.93,72.3a24,24,0,0,1-2.83-.16,33.52,33.52,0,0,0,18.17,5.34C65.09,77.48,77,59.41,77,43.74l0-1.54A23.48,23.48,0,0,0,82.9,36.08Z"/></svg>