<svg id="Layer_1" data-name="Layer 1" xmlns="http://www.w3.org/2000/svg" viewBox="0 0 108 108"><defs><style>.cls-1{fill:#fff;}</style></defs><title>IconSocial</title><path class="cls-1" d="M32.71,38.39,50.93,52.82a4.68,4.68,0,0,0,3.07.89,4.64,4.64,0,0,0,3.07-.89L75.29,38.39c1.46-1.15,1.12-2.09-.73-2.09H33.44C31.59,36.3,31.26,37.24,32.71,38.39Z"/><path class="cls-1" d="M76.6,42.2,56.69,57.31a4.82,4.82,0,0,1-5.38,0L31.4,42.2c-1.48-1.12-2.69-.52-2.69,1.33v24.8a3.38,3.38,0,0,0,3.37,3.37H75.92a3.38,3.38,0,0,0,3.37-3.37V43.53C79.29,41.68,78.08,41.08,76.6,42.2Z"/><path class="cls-1" d="M54,108a54,54,0,1,1,54-54A54.06,54.06,0,0,1,54,108ZM54,4a50,50,0,1,0,50,50A50.06,50.06,0,0,0,54,4Z"/></svg>