<svg id="Layer_1" data-name="Layer 1" xmlns="http://www.w3.org/2000/svg" viewBox="0 0 108 108"><defs><style>.cls-1{fill:#fff;}</style></defs><title>IconSocial</title><path class="cls-1" d="M54,24.67a30.09,30.09,0,0,0-9.46,58.6c1.49.28,2-.65,2-1.45s0-2.6,0-5.11c-8.33,1.82-10.09-4-10.09-4-1.36-3.47-3.32-4.4-3.32-4.4-2.73-1.86.2-1.83.2-1.83a6.31,6.31,0,0,1,4.58,3.1c2.68,4.6,7,3.27,8.72,2.5a6.46,6.46,0,0,1,1.9-4c-6.64-.76-13.64-3.34-13.64-14.86A11.64,11.64,0,0,1,38,45.1a10.84,10.84,0,0,1,.29-8s2.51-.8,8.24,3.09a28,28,0,0,1,15,0c5.72-3.89,8.23-3.08,8.23-3.08a10.83,10.83,0,0,1,.3,8,11.65,11.65,0,0,1,3.08,8.07c0,11.55-7,14.1-13.67,14.84,1.07.93,2,2.76,2,5.57,0,4,0,7.26,0,8.24,0,.81.54,1.75,2.06,1.45A30.09,30.09,0,0,0,54,24.67Z"/><path class="cls-1" d="M54,108a54,54,0,1,1,54-54A54.06,54.06,0,0,1,54,108ZM54,4a50,50,0,1,0,50,50A50.06,50.06,0,0,0,54,4Z"/></svg>