<svg id="Layer_1" data-name="Layer 1" xmlns="http://www.w3.org/2000/svg" viewBox="0 0 108 108"><defs><style>.cls-1{fill:#fff;}</style></defs><title>IconSocial</title><path class="cls-1" d="M68.25,25.51H60.86c-8.31,0-13.67,5.51-13.67,14V46H39.75a1.16,1.16,0,0,0-1.16,1.16v9.37a1.16,1.16,0,0,0,1.16,1.16h7.44V81.34a1.16,1.16,0,0,0,1.16,1.16H58a1.16,1.16,0,0,0,1.17-1.16V57.69H67.9a1.16,1.16,0,0,0,1.16-1.16V47.16a1.13,1.13,0,0,0-.34-.82A1.15,1.15,0,0,0,67.9,46H59.21V40.51c0-2.63.62-4,4.06-4h5a1.16,1.16,0,0,0,1.16-1.16V26.67A1.16,1.16,0,0,0,68.25,25.51Z"/><path class="cls-1" d="M54,108a54,54,0,1,1,54-54A54.06,54.06,0,0,1,54,108ZM54,4a50,50,0,1,0,50,50A50.06,50.06,0,0,0,54,4Z"/></svg>